USFL
nRows=252
nColumns=2
inDegrees=yes
endheader
time	tib_ant_r	
3.19355	 79.761094	
3.22681	 79.755092	
3.26008	 79.743976	
3.29335	 79.743972	
3.32661	 79.743582	
3.35988	 79.748690	
3.39315	 79.760405	
3.42641	 79.763992	
3.45968	 79.766267	
3.49294	 79.772701	
3.52621	 79.779241	
3.55948	 79.771967	
3.59274	 79.771892	
3.62601	 79.768679	
3.65927	 79.757846	
3.69254	 79.755146	
3.72581	 79.734216	
3.75907	 79.734144	
3.79234	 79.730550	
3.8256	 79.730144	
3.85887	 79.743467	
3.89214	 79.737199	
3.9254	 79.723105	
3.95867	 79.736771	
3.99194	 79.708432	
4.0252	 79.679664	
4.05847	 79.680995	
4.09173	 79.676345	
4.125	 79.692963	
4.15827	 79.645996	
4.19153	 79.671099	
4.2248	 79.702800	
4.25806	 79.685748	
4.29133	 79.715077	
4.3246	 79.708939	
4.35786	 79.714046	
4.39113	 79.692501	
4.4244	 79.678920	
4.45766	 79.681864	
4.49093	 79.656052	
4.52419	 79.643274	
4.55746	 79.645355	
4.59073	 79.637746	
4.62399	 79.631262	
4.65726	 79.624372	
4.69052	 79.652403	
4.72379	 79.635206	
4.75706	 79.615336	
4.79032	 79.617990	
4.82359	 79.619928	
4.85685	 79.636132	
4.89012	 79.649532	
4.92339	 79.641398	
4.95665	 79.663636	
4.98992	 79.671732	
5.02319	 79.665557	
5.05645	 79.656030	
5.08972	 79.697481	
5.12298	 79.706612	
5.15625	 79.707953	
5.18952	 79.696742	
5.22278	 79.882717	
5.25605	 80.393262	
5.28931	 80.696552	
5.32258	 81.534126	
5.35585	 60.774593	
5.38911	 61.138366	
5.42238	 61.484811	
5.45565	 61.678472	
5.48891	 61.895223	
5.52218	 62.013330	
5.55544	 61.642074	
5.58871	 61.821470	
5.62198	 62.072943	
5.65524	 61.575363	
5.68851	 61.420001	
5.72177	 61.263409	
5.75504	 60.526249	
5.78831	 60.152312	
5.82157	 59.889217	
5.85484	 59.279160	
5.8881	 59.081044	
5.92137	 58.742427	
5.95464	 58.454471	
5.9879	 58.297839	
6.02117	 58.124194	
6.05444	 57.812454	
6.0877	 57.813950	
6.12097	 57.726417	
6.15423	 57.697555	
6.1875	 57.591874	
6.22077	 57.476919	
6.25403	 57.476540	
6.2873	 57.607135	
6.32056	 57.691240	
6.35383	 57.827851	
6.3871	 57.758875	
6.42036	 57.695085	
6.45363	 57.853427	
6.4869	 57.824795	
6.52016	 57.946044	
6.55343	 57.953270	
6.58669	 57.870913	
6.61996	 57.741610	
6.65323	 57.851915	
6.68649	 57.803045	
6.71976	 57.756619	
6.75302	 57.848111	
6.78629	 57.816883	
6.81956	 57.845844	
6.85282	 57.787758	
6.88609	 57.721552	
6.91935	 57.700512	
6.95262	 57.485156	
6.98589	 57.387019	
7.01915	 57.370252	
7.05242	 57.335095	
7.08569	 57.289579	
7.11895	 57.322012	
7.15222	 57.309258	
7.18548	 57.332527	
7.21875	 57.400601	
7.25202	 57.426682	
7.28528	 57.406352	
7.31855	 57.307068	
7.35181	 57.209610	
7.38508	 57.292953	
7.41835	 57.381475	
7.45161	 57.341238	
7.48488	 57.416882	
7.51815	 57.404648	
7.55141	 57.501067	
7.58468	 57.745277	
7.61794	 57.744208	
7.65121	 57.758848	
7.68448	 57.711401	
7.71774	 57.625341	
7.75101	 57.682609	
7.78427	 57.786953	
7.81754	 57.827492	
7.85081	 57.774553	
7.88407	 57.588213	
7.91734	 57.638874	
7.9506	 57.786590	
7.98387	 57.807846	
8.01714	 57.810434	
8.0504	 57.788056	
8.08367	 57.783690	
8.11694	 57.803307	
8.1502	 57.795968	
8.18347	 57.795069	
8.21673	 57.754253	
8.25	 57.685359	
8.28327	 57.778093	
8.31653	 57.818676	
8.3498	 57.814212	
8.38306	 57.832197	
8.41633	 57.887469	
8.4496	 57.861609	
8.48286	 57.853318	
8.51613	 57.898852	
8.5494	 57.874174	
8.58266	 58.023225	
8.61593	 58.057290	
8.64919	 58.077719	
8.68246	 58.069251	
8.71573	 58.029582	
8.74899	 58.126849	
8.78226	 58.266146	
8.81552	 58.284363	
8.84879	 58.377737	
8.88206	 58.395542	
8.91532	 58.338367	
8.94859	 58.410014	
8.98185	 58.414561	
9.01512	 58.460536	
9.04839	 58.520380	
9.08165	 58.469982	
9.11492	 58.551316	
9.14819	 58.624641	
9.18145	 58.628519	
9.21472	 58.628733	
9.24798	 58.640997	
9.28125	 58.637936	
9.31452	 58.640282	
9.34778	 58.659233	
9.38105	 58.631035	
9.41431	 58.640603	
9.44758	 58.595343	
9.48085	 58.547457	
9.51411	 58.516569	
9.54738	 58.535612	
9.58065	 58.566068	
9.61391	 58.562306	
9.64718	 58.493899	
9.68044	 58.649359	
9.71371	 58.637535	
9.74698	 58.698456	
9.78024	 58.737937	
9.81351	 58.714424	
9.84677	 58.694117	
9.88004	 58.774288	
9.91331	 58.801426	
9.94657	 58.800906	
9.97984	 58.811514	
10.0131	 58.802903	
10.0464	 58.771519	
10.0796	 58.697001	
10.1129	 58.776786	
10.1462	 58.852723	
10.1794	 58.838120	
10.2127	 58.849591	
10.246	 58.848040	
10.2792	 58.795469	
10.3125	 58.818422	
10.3458	 58.844720	
10.379	 58.824670	
10.4123	 58.887411	
10.4456	 58.853577	
10.4788	 58.888733	
10.5121	 58.871290	
10.5454	 58.833904	
10.5786	 58.875096	
10.6119	 58.980881	
10.6452	 58.993550	
10.6784	 59.008772	
10.7117	 58.948265	
10.745	 58.915477	
10.7782	 58.954664	
10.8115	 58.706939	
10.8448	 58.855062	
10.878	 58.862355	
10.9113	 58.495413	
10.9446	 58.599102	
10.9778	 58.478715	
11.0111	 58.099420	
11.0444	 58.132311	
11.0776	 58.029286	
11.1109	 57.908337	
11.1442	 57.784991	
11.1774	 57.510582	
11.2107	 57.558522	
11.244	 57.703641	
11.2772	 57.301906	
11.3105	 57.358737	
11.3437	 56.990781	
11.377	 56.592825	
11.4103	 56.673838	
11.4435	 56.431133	
11.4768	 56.438882	
11.5101	 56.714518	
11.5433	 56.851755	
